# xmcd
#
# Track frame offsets: 
#        150
#        22127
#        33919
#        51811
#        71014
#        83385
#        97679
#        115770
#        148710
#        164528
#        178765
#        205797
#        229493
#        248177
#        267026
#        284550
#        306202
#
# Disc length: 4417 seconds
#
# Revision: 0
# Processed by: cddbd v1.5.2PL0 Copyright (c) Steve Scherf et al.
# Submitted via: ExactAudioCopyFreeDBPlugin 1.0
#
DISCID=ec113f11
DTITLE=Kan Mikami - Yamamoto
DYEAR=2013
DGENRE=Blues
TTITLE0=Aoshi
TTITLE1=Anko Tsubaki Gaiden
TTITLE2=Danny Boy
TTITLE3=Thalia
TTITLE4=Rainbow
TTITLE5=Stamp
TTITLE6=Card
TTITLE7=Hometown
TTITLE8=Narayama Bushiko
TTITLE9=Juu-kyuu no Haru
TTITLE10=Shiroi Inu (Hayange)
TTITLE11=Lyon
TTITLE12=Ha ~ LINES DRAWN TOWARDS
TTITLE13=Ton katsu Hiyori
TTITLE14=Zou kin o shiboru Riyuu
TTITLE15=Watashi tachi wa nani o ushinatta no ka
TTITLE16=1-nin Heya
EXTD=
EXTT0=
EXTT1=
EXTT2=
EXTT3=
EXTT4=
EXTT5=
EXTT6=
EXTT7=
EXTT8=
EXTT9=
EXTT10=
EXTT11=
EXTT12=
EXTT13=
EXTT14=
EXTT15=
EXTT16=
PLAYORDER=
